<svg width="337" height="301" viewBox="0 0 337 301" fill="none" xmlns="http://www.w3.org/2000/svg">
    <path fill-rule="evenodd" clip-rule="evenodd" d="M132.416 1.80551C128.596 5.01051 128.666 11.3823 132.573 16.0374C135.573 19.6128 139.963 21.1356 143.569 20.1973L150.578 30.2986C150.774 30.581 150.811 30.9442 150.677 31.2605L140.305 55.6119C107.7 48.6187 80.1112 48.9091 48.5617 55.8006L38.2164 31.5105C38.0817 31.1942 38.1189 30.831 38.3148 30.5486L45.4631 20.2467C49.0301 21.0787 53.3145 19.5469 56.2593 16.0374C60.1654 11.3824 60.2355 5.01051 56.4159 1.80551C52.5963 -1.39949 46.3335 -0.223981 42.4274 4.43108C39.7794 7.58685 38.8943 11.5316 39.7889 14.7438L29.7695 30.5764C29.6 30.8443 29.5675 31.1767 29.6821 31.4724L39.8925 57.8333C27.4691 60.9375 14.3413 65.0067 0 70.0023L10 110.502C17.04 107.665 23.7525 105.152 30.1997 102.953L51.754 209.258C35.5044 226.107 23.2073 225.969 0 221.502C16.7873 244.821 30.3628 248.975 59.2102 246.032L60.5 252.393C81.4746 261.905 107.44 263.349 129.5 252.393L157.917 102.578C164.961 104.897 172.288 107.544 180 110.502L189.5 70.0023C174.873 64.8244 161.525 60.7075 148.988 57.616L159.211 31.2224C159.325 30.9267 159.293 30.5943 159.123 30.3264L149.107 14.499C149.892 11.3328 148.986 7.50713 146.404 4.43108C142.498 -0.223983 136.236 -1.39949 132.416 1.80551Z" fill="url(#paint0_linear_75_2)"/>
    <path d="M72.5346 236.82L51.1304 108.115C68.7627 102.773 83.0143 100.042 96.6901 100C110.344 99.9594 123.48 102.6 138.885 108.077L118.851 236.846C104.049 245.603 86.7045 244.488 72.5346 236.82Z" fill="url(#paint1_linear_75_2)" stroke="url(#paint2_linear_75_2)" stroke-width="2"/>
    <path d="M17.0182 96.9428L12.1391 74.8755C20.4356 70.4624 32.57 67.047 46.73 64.7092C61.2477 62.3124 77.8166 61.0607 94.4036 61.0022C110.991 60.9436 127.574 62.0783 142.122 64.4454C156.33 66.7572 168.518 70.2323 176.873 74.867L172.276 97.0218C169.403 94.8126 165.521 92.8826 160.914 91.2105C155.549 89.2633 149.133 87.6418 142.034 86.3425C127.838 83.7438 110.838 82.4207 93.9187 82.3893C76.9996 82.358 60.123 83.6183 46.1723 86.2022C39.1974 87.4941 32.9319 89.1208 27.7488 91.0928C23.3559 92.7642 19.6842 94.7045 17.0182 96.9428Z" fill="url(#paint3_linear_75_2)" stroke="url(#paint4_linear_75_2)" stroke-width="2"/>
    <path d="M40.218 10.2097L40.4359 9.20149C42.1702 11.5551 43.7463 13.3252 45.5492 14.8429C47.3763 16.3809 49.4206 17.6463 52.0681 18.999L51.186 19.44C48.3497 17.9917 46.3409 16.7538 44.6773 15.3489C43.0188 13.9483 41.6854 12.3664 40.218 10.2097Z" fill="#ADE6A4" stroke="#ADE6A4"/>
    <path d="M148.7 8C144.771 13.6616 141.897 16.029 135.717 19.0223L137.768 20.0869C143.74 17.1171 146.234 14.978 149.253 10.3813L148.7 8Z" fill="#ADE6A4"/>
    <path fill-rule="evenodd" clip-rule="evenodd" d="M211 154C223.703 154 234 141.688 234 126.5C234 111.312 223.703 99 211 99C198.297 99 188 111.312 188 126.5C188 141.688 198.297 154 211 154ZM283 161.5C283 176.688 272.703 189 260 189C247.297 189 237 176.688 237 161.5C237 146.312 247.297 134 260 134C272.703 134 283 146.312 283 161.5ZM263.565 286.608C250.636 294.682 233.183 301 213 301C169.37 301 137 271.479 137 258.5C137 248.263 157.14 226.488 187.06 217.747L181.5 183C186.232 179.085 188.013 172.93 190.5 159H234.5C235.099 171.258 236.99 176.203 242 183L238.308 217.612C263.07 224.803 280.658 241.184 285.887 252.418C301.58 268.095 313.839 267.861 336.5 263.5C319.863 286.61 292.232 289.434 263.565 286.608ZM187 161.5C187 176.688 176.703 189 164 189C151.297 189 141 176.688 141 161.5C141 146.312 151.297 134 164 134C176.703 134 187 146.312 187 161.5Z" fill="url(#paint5_linear_75_2)"/>
    <path d="M127 198.631C153.732 192.467 169.077 192.446 197 198.631L188 260.131H137.5L127 198.631Z" fill="url(#paint6_linear_75_2)"/>
    <path d="M227 199C253.732 192.835 269.077 192.815 297 199L288 260.5H237.5L227 199Z" fill="url(#paint7_linear_75_2)"/>
    <defs>
        <linearGradient id="paint0_linear_75_2" x1="94.75" y1="0" x2="94.75" y2="260.078" gradientUnits="userSpaceOnUse">
            <stop stop-color="#59A44D"/>
            <stop offset="1" stop-color="#ADE6A4"/>
        </linearGradient>
        <linearGradient id="paint1_linear_75_2" x1="95" y1="99" x2="95" y2="244" gradientUnits="userSpaceOnUse">
            <stop stop-color="#60A455"/>
            <stop offset="1" stop-color="#ADE6A4"/>
        </linearGradient>
        <linearGradient id="paint2_linear_75_2" x1="95" y1="99" x2="95" y2="244" gradientUnits="userSpaceOnUse">
            <stop stop-color="#ADE6A4"/>
            <stop offset="1" stop-color="#C7F9BF"/>
        </linearGradient>
        <linearGradient id="paint3_linear_75_2" x1="93.9168" y1="61.484" x2="95" y2="118.5" gradientUnits="userSpaceOnUse">
            <stop stop-color="#60A455"/>
            <stop offset="1" stop-color="#ADE6A4"/>
        </linearGradient>
        <linearGradient id="paint4_linear_75_2" x1="95" y1="60" x2="95" y2="111.5" gradientUnits="userSpaceOnUse">
            <stop stop-color="#A0D997"/>
            <stop offset="1" stop-color="#ADE6A4"/>
        </linearGradient>
        <linearGradient id="paint5_linear_75_2" x1="323" y1="108" x2="324" y2="228" gradientUnits="userSpaceOnUse">
            <stop offset="0.525" stop-color="#8A7FCE"/>
            <stop offset="1" stop-color="#BEA9EB"/>
        </linearGradient>
        <linearGradient id="paint6_linear_75_2" x1="162" y1="194" x2="162" y2="260.131" gradientUnits="userSpaceOnUse">
            <stop stop-color="#766ABE"/>
            <stop offset="1" stop-color="#BEA9EB"/>
        </linearGradient>
        <linearGradient id="paint7_linear_75_2" x1="262" y1="194.369" x2="262" y2="260.5" gradientUnits="userSpaceOnUse">
            <stop stop-color="#766ABE"/>
            <stop offset="1" stop-color="#BEA9EB"/>
        </linearGradient>
    </defs>
</svg>
